<?xml version="1.0" encoding="utf-8"?>
<!-- Generator: Adobe Illustrator 18.1.1, SVG Export Plug-In . SVG Version: 6.00 Build 0)  -->
<svg version="1.1" id="Layer_1" xmlns="http://www.w3.org/2000/svg" xmlns:xlink="http://www.w3.org/1999/xlink" x="0px" y="0px"
	 viewBox="0 0 51.6 51.5" enable-background="new 0 0 51.6 51.5" xml:space="preserve">
<ellipse fill="none" stroke="#FFFFFF" stroke-miterlimit="10" cx="25.9" cy="25.8" rx="25" ry="24.9"/>
<rect x="9.1" y="8.2" fill="none" stroke="#FFFFFF" stroke-miterlimit="10" width="33.7" height="35.4"/>
<rect x="9.1" y="8.2" fill="none" stroke="#FFFFFF" stroke-miterlimit="10" width="33.7" height="35.4"/>
<rect x="9.1" y="8.2" transform="matrix(0.9848 -0.1736 0.1736 0.9848 -4.1128 4.8974)" fill="none" stroke="#FFFFFF" stroke-miterlimit="10" width="33.7" height="35.4"/>
<rect x="9.1" y="8.2" transform="matrix(0.9397 -0.342 0.342 0.9397 -7.3126 10.4345)" fill="none" stroke="#FFFFFF" stroke-miterlimit="10" width="33.7" height="35.4"/>
<rect x="9.1" y="8.2" transform="matrix(0.866 -0.5 0.5 0.866 -9.5024 16.4431)" fill="none" stroke="#FFFFFF" stroke-miterlimit="10" width="33.7" height="35.4"/>
<rect x="9.1" y="8.2" transform="matrix(0.766 -0.6428 0.6428 0.766 -10.6154 22.7407)" fill="none" stroke="#FFFFFF" stroke-miterlimit="10" width="33.7" height="35.4"/>
<rect x="9.1" y="8.2" transform="matrix(0.6428 -0.766 0.766 0.6428 -10.618 29.136)" fill="none" stroke="#FFFFFF" stroke-miterlimit="10" width="33.7" height="35.4"/>
<rect x="9.1" y="8.2" transform="matrix(0.5 -0.866 0.866 0.5 -9.5101 35.4345)" fill="none" stroke="#FFFFFF" stroke-miterlimit="10" width="33.7" height="35.4"/>
<rect x="9.1" y="8.2" transform="matrix(0.342 -0.9397 0.9397 0.342 -7.3252 41.4449)" fill="none" stroke="#FFFFFF" stroke-miterlimit="10" width="33.7" height="35.4"/>
<rect x="9.1" y="8.2" transform="matrix(0.1736 -0.9848 0.9848 0.1736 -4.1299 46.9846)" fill="none" stroke="#FFFFFF" stroke-miterlimit="10" width="33.7" height="35.4"/>
<rect x="8.2" y="9.1" fill="none" stroke="#FFFFFF" stroke-miterlimit="10" width="35.4" height="33.7"/>
<ellipse fill="none" stroke="#FFFFFF" stroke-miterlimit="10" cx="25.9" cy="25.8" rx="17.1" ry="16.1"/>
</svg>
