<?xml version="1.0" encoding="utf-8"?>
<!-- Generator: Adobe Illustrator 18.1.1, SVG Export Plug-In . SVG Version: 6.00 Build 0)  -->
<svg version="1.1" id="Layer_1" xmlns="http://www.w3.org/2000/svg" xmlns:xlink="http://www.w3.org/1999/xlink" x="0px" y="0px"
	 viewBox="-115 117 200 200" enable-background="new -115 117 200 200" xml:space="preserve">
<g>
	<path fill="#D3D3D3" d="M72.8,117h-175.6c-5.4,0-9.8,4.4-9.8,9.8c0,5.4,4.4,9.8,9.8,9.8h2.3v96.6c0,7,5.7,12.7,12.7,12.7H57.8
		c7,0,12.7-5.7,12.7-12.7v-96.6h2.3c5.4,0,9.8-4.4,9.8-9.8S78.1,117,72.8,117z M58.8,233.1c0,0.5-0.5,1-1,1H-87.8c-0.5,0-1-0.5-1-1
		v-96.6H58.8L58.8,233.1L58.8,233.1z"/>
	<path fill="#D3D3D3" d="M34.2,154.9c-5.4,0-9.7,4.4-9.7,9.7c0,2,0.6,3.9,1.7,5.5L3.7,196c-1.3-0.7-2.8-1-4.3-1
		c-1.7,0-3.3,0.4-4.7,1.2l-10.1-10.6c0.9-1.5,1.5-3.3,1.5-5.1c0-5.4-4.4-9.7-9.7-9.7c-5.4,0-9.7,4.4-9.7,9.7c0,1,0.1,1.9,0.4,2.7
		l-24.4,14.6c-1.7-1.7-4.2-2.8-6.8-2.8c-5.4,0-9.7,4.4-9.7,9.7c0,5.4,4.4,9.7,9.7,9.7c5.4,0,9.7-4.4,9.7-9.7c0-1-0.1-1.9-0.4-2.7
		l24.5-14.6c1.7,1.7,4.2,2.8,6.8,2.8c1.7,0,3.3-0.4,4.7-1.2l10.1,10.6c-0.9,1.5-1.5,3.3-1.5,5.1c0,5.4,4.3,9.7,9.7,9.7
		c5.4,0,9.7-4.4,9.7-9.7c0-2.1-0.6-3.9-1.7-5.5l22.5-25.9c1.3,0.7,2.8,1,4.3,1c5.4,0,9.7-4.4,9.7-9.7
		C43.9,159.3,39.6,154.9,34.2,154.9z M-59.4,204.7c0,2.7-2.2,4.9-4.9,4.9c-2.7,0-4.9-2.2-4.9-4.9c0-2.7,2.2-4.9,4.9-4.9
		c0.9,0,1.7,0.2,2.4,0.6C-60.4,201.3-59.4,202.9-59.4,204.7L-59.4,204.7z M-23.6,185.3c-0.9,0-1.7-0.2-2.4-0.6
		c-1.5-0.8-2.5-2.4-2.5-4.2v-0.1c0-2.7,2.2-4.9,4.9-4.9c2.7,0,4.9,2.2,4.9,4.9c0,0.5-0.1,0.9-0.2,1.4c-0.5,1.6-1.8,2.9-3.5,3.3
		C-22.9,185.3-23.3,185.3-23.6,185.3z M4.3,204.7c0,2.7-2.2,4.9-4.9,4.9c-2.7,0-4.9-2.2-4.9-4.9c0-0.5,0.1-0.9,0.2-1.4
		c0.5-1.7,1.9-3,3.5-3.4c0.4-0.1,0.7-0.1,1.1-0.1c0.3,0,0.6,0,0.9,0.1c1.7,0.3,3.1,1.6,3.7,3.2C4.2,203.6,4.3,204.2,4.3,204.7z
		 M34.2,169.5c-0.3,0-0.6,0-0.9-0.1c-1.7-0.3-3.1-1.6-3.7-3.2c-0.2-0.5-0.3-1-0.3-1.6c0-2.7,2.2-4.9,4.9-4.9c2.7,0,4.9,2.2,4.9,4.9
		C39.1,167.3,36.9,169.5,34.2,169.5z"/>
	<path fill="#D3D3D3" d="M50,301.3c-1.6,0-3.1,0.5-4.3,1.3l-57.2-29v-27.9h-6.8v27.9l-57.2,29c-1.2-0.8-2.7-1.3-4.3-1.3
		c-4.3,0-7.8,3.5-7.8,7.8c0,4.3,3.5,7.8,7.8,7.8s7.8-3.5,7.8-7.8c0-0.2,0-0.4,0-0.6l53.7-27.2v20.8c-2.6,1.3-4.4,3.9-4.4,7.1
		c0,4.3,3.5,7.8,7.8,7.8c4.3,0,7.8-3.5,7.8-7.8c0-3.1-1.8-5.8-4.4-7.1v-20.8l53.7,27.2c0,0.2,0,0.4,0,0.6c0,4.3,3.5,7.8,7.9,7.8
		s7.8-3.5,7.8-7.8C57.8,304.8,54.3,301.3,50,301.3z"/>
</g>
</svg>
