<?xml version="1.0" encoding="utf-8"?>
<!-- Generator: Adobe Illustrator 18.1.1, SVG Export Plug-In . SVG Version: 6.00 Build 0)  -->
<svg version="1.1" id="Layer_1" xmlns="http://www.w3.org/2000/svg" xmlns:xlink="http://www.w3.org/1999/xlink" x="0px" y="0px"
	 viewBox="-191 193 48 48" enable-background="new -191 193 48 48" xml:space="preserve">
<g>
	<path fill="#41545E" d="M-167,193c-13.3,0-24,10.7-24,24s10.7,24,24,24c13.3,0,24-10.7,24-24S-153.7,193-167,193z M-166.9,237
		c-11.1,0-20-9-20-20c0-11.1,9-20,20-20c11.1,0,20,9,20,20C-146.9,228-155.9,237-166.9,237z"/>
	<path fill="#41545E" d="M-155.8,207.6h-22.4c-1.1,0-2,0.9-2,2v14.8c0,1.1,0.9,2,2,2h22.4c1.1,0,2-0.9,2-2v-14.8
		C-153.8,208.5-154.6,207.6-155.8,207.6z M-157.6,221.2c0,1.1-0.9,2-2,2h-15.3c-1.1,0-2-0.9-2-2v-8.1c0,0,0-0.7,1.3,0c0,0,0,0,0,0
		c2,1.2,4.4,2.3,7.7,3.7c0.2,0.1,0.7,0.2,1.4,0c3.3-1,6.1-2.3,8.2-3.5l0,0c0,0,0.8-0.5,0.8,0V221.2z"/>
</g>
</svg>
