<?xml version="1.0" encoding="utf-8"?>
<!-- Generator: Adobe Illustrator 18.1.1, SVG Export Plug-In . SVG Version: 6.00 Build 0)  -->
<svg version="1.1" id="Layer_1" xmlns="http://www.w3.org/2000/svg" xmlns:xlink="http://www.w3.org/1999/xlink" x="0px" y="0px"
	 viewBox="71 12.3 427 406.6" enable-background="new 71 12.3 427 406.6" xml:space="preserve">
<path fill="#212B7A" d="M71,382.6c0,20.1,16.3,36.3,36.3,36.3h118.1c20.1,0,36.3-16.3,36.3-36.3V237.2c0-20.1-16.3-36.3-36.3-36.3
	h-58.3c-10.1,0-18.2-8.2-18.2-18.2c0-3.3,0.8-5.5,0.8-5.5c13.3-44,46.8-79.2,89.8-94.9l0.2-0.2c13-5.5,22.1-18.4,22.1-33.4
	c0-20.1-16.3-36.3-36.3-36.3c-4.9,0-9.5,1-13.8,2.7l-1.6,0.6C128.7,47.4,71,126.4,71,219V382.6z M307.2,382.6
	c0,20.1,16.3,36.3,36.3,36.3h118.1c20.1,0,36.3-16.3,36.3-36.3V237.2c0-20.1-16.3-36.3-36.3-36.3h-58.3c-10.1,0-18.2-8.2-18.2-18.2
	c0-3.4,0.8-5.5,0.8-5.5c13.3-44,46.8-79.2,89.8-94.9l0.2-0.2c13-5.5,22.1-18.4,22.1-33.4c0-20.1-16.3-36.3-36.3-36.3
	c-4.9,0-9.5,1-13.8,2.7l-1.6,0.6c-81.3,31.7-139,110.8-139,203.3V382.6z"/>
</svg>
