<?xml version="1.0" encoding="utf-8"?>
<!-- Generator: Adobe Illustrator 18.1.1, SVG Export Plug-In . SVG Version: 6.00 Build 0)  -->
<svg version="1.1" id="Layer_1" xmlns="http://www.w3.org/2000/svg" xmlns:xlink="http://www.w3.org/1999/xlink" x="0px" y="0px"
	 viewBox="18 108 396 234" enable-background="new 18 108 396 234" xml:space="preserve">
<g>
	<path fill="#D3D3D3" d="M162,162c0-30.6,23.4-54,54-54s54,23.4,54,54s-23.4,54-54,54S162,192.6,162,162z M216,252
		c-82.8,0-108,59.4-108,59.4V342h216v-30.6C324,311.4,298.8,252,216,252z"/>
</g>
<g>
	<g>
		<circle cx="333" cy="153" r="45"/>
	</g>
	<g>
		<path d="M333,234c-21.6,0-37.8,5.4-50.4,14.4c41.4,19.8,57.6,54,57.6,57.6v1.8H414v-23.4C414,282.6,394.2,234,333,234z"/>
	</g>
</g>
<g>
	<g>
		<circle fill="#D3D3D3" cx="333" cy="153" r="45"/>
	</g>
	<g>
		<path fill="#D3D3D3" d="M333,234c-21.6,0-37.8,5.4-50.4,14.4c41.4,19.8,57.6,54,57.6,57.6v1.8H414v-23.4
			C414,282.6,394.2,234,333,234z"/>
	</g>
</g>
<g>
	<g>
		<circle fill="#D3D3D3" cx="99" cy="153" r="45"/>
	</g>
	<g>
		<path fill="#D3D3D3" d="M99,234c21.6,0,37.8,5.4,50.4,14.4c-41.4,19.8-57.6,54-57.6,57.6v1.8H18v-23.4C18,282.6,37.8,234,99,234z"
			/>
	</g>
</g>
</svg>
