<?xml version="1.0" encoding="utf-8"?>
<!-- Generator: Adobe Illustrator 18.1.1, SVG Export Plug-In . SVG Version: 6.00 Build 0)  -->
<svg version="1.1" id="Layer_1" xmlns="http://www.w3.org/2000/svg" xmlns:xlink="http://www.w3.org/1999/xlink" x="0px" y="0px"
	 viewBox="18 90 397.8 270" enable-background="new 18 90 397.8 270" xml:space="preserve">
<g>
	<g>
		<path fill="#D3D3D3" d="M297,252c-27,0-48.6,7.2-64.8,16.2c25.2,21.6,36,46.8,37.8,48.6l1.8,3.6V360h144v-36
			C414,324,385.2,252,297,252z"/>
	</g>
	<g>
		<circle fill="#D3D3D3" cx="297" cy="153" r="63"/>
	</g>
</g>
<g>
	<path fill="#D3D3D3" d="M72,153c0-34.2,28.8-63,63-63s63,28.8,63,63s-28.8,63-63,63S72,187.2,72,153z M135,252
		c-88.2,0-117,72-117,72v36h234v-36C252,324,223.2,252,135,252z"/>
</g>
</svg>
