<?xml version="1.0" encoding="utf-8"?>
<!-- Generator: Adobe Illustrator 18.1.1, SVG Export Plug-In . SVG Version: 6.00 Build 0)  -->
<svg version="1.1" id="Layer_1" xmlns="http://www.w3.org/2000/svg" xmlns:xlink="http://www.w3.org/1999/xlink" x="0px" y="0px"
	 viewBox="-115 153.6 200 123.2" enable-background="new -115 153.6 200 123.2" xml:space="preserve">
<g>
	<path fill="#D3D3D3" d="M52.4,222l-19.6-39.3c-0.2-0.4-0.5-0.8-0.9-1.2c-0.4-0.3-0.8-0.6-1.2-0.7l-23-8.3c-1.6-0.6-3.3-0.9-5.1-0.9
		c-1.8,0-3.5,0.4-5.1,1l-17.5,6.7c-1.2,0.5-2.4,1-3.7,1.6c-0.4,0.2-0.8,0.4-1.2,0.7c-1.3-0.7-2.7-1.3-4.1-1.9
		c-4.6-1.7-9.3-2.3-13.8-1.9l-11.7,1c-0.5,0-1,0.2-1.5,0.5c-0.5,0.3-0.9,0.7-1.2,1.1L-83.7,218c-0.5,0.8-0.8,1.8-0.7,2.8
		c0.1,1,0.5,2,1.2,2.6l11.5,11.4c-0.6,1.2-1,2.5-1.1,3.8c-0.2,2.5,0.7,4.9,2.3,6.8c1.6,1.9,3.9,3,6.4,3.2c0.1,0,0.3,0,0.4,0
		c-1,3.3-0.2,7.1,2.5,9.6c1.6,1.5,3.6,2.4,5.8,2.5c-1.4,3.5-0.6,7.6,2.2,10.3c1.7,1.7,4,2.6,6.4,2.6c2.5,0,4.8-1,6.6-2.7
		c0.7,4.2,4.2,7.6,8.6,7.9c0.2,0,0.4,0,0.6,0c1.1,0,2.2-0.2,3.2-0.6c1.7,1.1,3.6,1.7,5.7,1.6c2.6-0.1,4.9-1.2,6.6-3l-6.3-6.3
		c0-0.1,0-0.3,0-0.4c0.1-1.2-0.1-2.4-0.5-3.6l12.9,12.9c1.6,0.7,3.4,1,5.3,0.9c3.7-0.2,7-1.9,9.3-4.6l1.3-1.5
		c0.1-0.1,0.2-0.3,0.3-0.5l-19.9-19.9c-0.5-0.5-0.6-1.4-0.1-1.9c0.5-0.5,1.2-0.5,1.8,0l23.7,23.6c1.3,0.5,2.7,0.7,4.1,0.6
		c3.3-0.1,6.2-1.7,8.2-4.1l3.1-3.6c0.7-0.8,1.1-2,1.1-3.2L8.2,244.6c-0.5-0.5-0.6-1.4-0.1-1.9c0.5-0.5,1.2-0.5,1.8,0l20.9,20.8
		c0.9,0.2,1.8,0.3,2.7,0.3c2.7-0.1,5-1.4,6.7-3.3l0.8-1c1.7-1.9,2.7-4.6,2.6-7.5c-0.1-2.9-1.3-5.4-3.1-7.2l-5.6-5.6l1.4,1.4
		L51.5,227c0.6-0.6,1.1-1.4,1.3-2.3C52.9,223.8,52.7,222.8,52.4,222z M-63.9,244.6c-1.4-0.1-2.7-0.7-3.6-1.8
		c-0.9-1.1-1.4-2.4-1.3-3.9c0.2-2.8,2.5-5,5.3-5c0.1,0,0.2,0,0.4,0c1.4,0.1,2.7,0.7,3.6,1.8c0.9,1.1,1.4,2.4,1.3,3.9
		C-58.5,242.5-61,244.8-63.9,244.6z M-54.9,256.7c-1.4,0-2.7-0.5-3.6-1.5c-2.1-2-2.2-5.3-0.3-7.4c0.1-0.1,2.2-2.3,3.2-3.3l0.5-0.6
		c1-1.1,2.4-1.7,3.9-1.7c1.4,0,2.7,0.5,3.6,1.5c1,1,1.6,2.3,1.7,3.7c0,1.4-0.5,2.8-1.5,3.8l-1.5,1.6c-0.3,0.3-0.7,0.7-1,1.1
		c-0.1,0.1-0.1,0.1-0.2,0.2c-0.3,0.3-0.5,0.5-0.7,0.7c-0.1,0.1-0.2,0.2-0.3,0.3c0,0,0,0.1,0,0.1C-52.1,256.1-53.4,256.7-54.9,256.7z
		 M-43,267.9c-1,1-2.4,1.6-3.8,1.6c-1.4,0-2.7-0.5-3.7-1.5c-2.1-2-2.2-5.3-0.3-7.4c0-0.1,1.3-1.3,2.6-2.8c0,0,0,0,0,0l1-1.1
		c1.8-1.9,2.4-2.5,2.6-2.7c0,0,0.1,0,0.1-0.1l0,0l0,0c0.2-0.2,0.3-0.3,0.3-0.3c1-1.1,2.4-1.7,3.9-1.7c1.4,0,2.7,0.5,3.6,1.5
		c1,1,1.6,2.3,1.7,3.7c0,1.4-0.5,2.8-1.5,3.8C-36.5,261.1-42.8,267.7-43,267.9z M-31.3,274.7c-2.9-0.2-5.1-2.7-5-5.6
		c0.2-2.8,2.5-5,5.3-5c0.1,0,0.2,0,0.4,0c2.9,0.2,5.1,2.7,5,5.6C-25.9,272.7-28.4,274.9-31.3,274.7z M33.6,237.9l-41.3-41.2l0,0
		l0.5-1.2c0.2-0.6,0.2-1.3-0.1-1.9c-0.4-0.6-0.9-1-1.6-1l-3.1-0.2l0,0l-3.4-0.2l-0.3,4c0,0.1-0.7,9.1-5.3,17.3
		c-4.7,8.4-11,11.3-11.9,11.5c-1.1,0.2-2.2,0.4-3.1,0.4c-0.6,0-1.1-0.1-1.6-0.3l-1.6-0.7c-0.7-0.3-1.2-0.9-1.4-1.6
		c-0.3-0.7-0.3-1.4,0-2.1l15.7-34.5l2.7-1.8l1.1-0.4h0l19.8-7.5c1.2-0.5,2.5-0.7,3.9-0.7l0.1,0c1.3,0,2.6,0.2,3.8,0.7l23,8.3
		L49,223.9L33.6,237.9z"/>
	<path fill="#D3D3D3" d="M55.9,157.6l-15.5,7.7c-2.2,1.1-4,3.1-4.9,5.6c-0.9,2.6-0.6,5.2,0.5,7.5l20.3,40.8c1.1,2.2,3.1,4,5.6,4.9
		c2.6,0.9,5.2,0.6,7.5-0.5l15.5-7.7L55.9,157.6z M69.4,215.8c-2.1,0-3.7-1.7-3.7-3.7c0-2.1,1.7-3.7,3.7-3.7c2.1,0,3.7,1.7,3.7,3.7
		C73.2,214.2,71.5,215.8,69.4,215.8z"/>
	<path fill="#D3D3D3" d="M-115,206.9l14.2,10c2,1.4,4.6,2.1,7.3,1.6c2.7-0.5,4.9-2,6.3-4l26.2-37.3c1.4-2,2.1-4.6,1.6-7.3
		c-0.5-2.7-2-4.9-4-6.3l-14.2-10L-115,206.9z M-102.8,205c0.3-2,2.2-3.5,4.3-3.1c2,0.3,3.5,2.2,3.1,4.3c-0.3,2-2.2,3.5-4.3,3.1
		C-101.7,209-103.1,207-102.8,205z"/>
</g>
</svg>
