<?xml version="1.0" encoding="utf-8"?>
<!-- Generator: Adobe Illustrator 18.1.1, SVG Export Plug-In . SVG Version: 6.00 Build 0)  -->
<svg version="1.1" id="Layer_1" xmlns="http://www.w3.org/2000/svg" xmlns:xlink="http://www.w3.org/1999/xlink" x="0px" y="0px"
	 viewBox="0 0 432 432" enable-background="new 0 0 432 432" xml:space="preserve">
<ellipse fill="#95AABD" stroke="#FFFFFF" stroke-width="3" stroke-miterlimit="10" cx="216.8" cy="216.4" rx="209.3" ry="208.5"/>
<rect x="76.2" y="69.1" fill="#95AABD" stroke="#FFFFFF" stroke-width="3" stroke-miterlimit="10" width="282.1" height="296.4"/>
<rect x="76.2" y="69.1" fill="#95AABD" stroke="#FFFFFF" stroke-width="3" stroke-miterlimit="10" width="282.1" height="296.4"/>
<rect x="76.1" y="69.1" transform="matrix(-0.9848 0.1736 -0.1736 -0.9848 468.7445 393.4926)" fill="#95AABD" stroke="#FFFFFF" stroke-width="3" stroke-miterlimit="10" width="282.1" height="296.4"/>
<rect x="76" y="69.1" transform="matrix(-0.9397 0.342 -0.342 -0.9397 495.3884 347.1304)" fill="#95AABD" stroke="#FFFFFF" stroke-width="3" stroke-miterlimit="10" width="282.1" height="296.4"/>
<rect x="75.9" y="69.1" transform="matrix(-0.866 0.5 -0.5 -0.866 513.5594 296.8585)" fill="#95AABD" stroke="#FFFFFF" stroke-width="3" stroke-miterlimit="10" width="282.1" height="296.4"/>
<rect x="75.9" y="69.1" transform="matrix(-0.766 0.6428 -0.6428 -0.766 522.7515 244.225)" fill="#95AABD" stroke="#FFFFFF" stroke-width="3" stroke-miterlimit="10" width="282.1" height="296.4"/>
<rect x="75.8" y="69.1" transform="matrix(-0.6428 0.766 -0.766 -0.6428 522.7181 190.8905)" fill="#95AABD" stroke="#FFFFFF" stroke-width="3" stroke-miterlimit="10" width="282.1" height="296.4"/>
<rect x="75.7" y="69.2" transform="matrix(-0.5 0.866 -0.866 -0.5 513.4199 138.2905)" fill="#95AABD" stroke="#FFFFFF" stroke-width="3" stroke-miterlimit="10" width="282.1" height="296.4"/>
<rect x="75.7" y="69.2" transform="matrix(-0.342 0.9397 -0.9397 -0.342 495.1528 88.0868)" fill="#95AABD" stroke="#FFFFFF" stroke-width="3" stroke-miterlimit="10" width="282.1" height="296.4"/>
<rect x="75.6" y="69.3" transform="matrix(-0.1736 0.9848 -0.9848 -0.1736 468.4628 41.8295)" fill="#95AABD" stroke="#FFFFFF" stroke-width="3" stroke-miterlimit="10" width="282.1" height="296.4"/>
<rect x="68.7" y="76.6" fill="#95AABD" stroke="#FFFFFF" stroke-width="3" stroke-miterlimit="10" width="296.4" height="282.1"/>
<ellipse fill="#95AABD" stroke="#FFFFFF" stroke-width="3" stroke-miterlimit="10" cx="216.8" cy="216.4" rx="143.2" ry="134.8"/>
</svg>
