<?xml version="1.0" encoding="utf-8"?>
<!-- Generator: Adobe Illustrator 18.1.1, SVG Export Plug-In . SVG Version: 6.00 Build 0)  -->
<svg version="1.1" id="Layer_1" xmlns="http://www.w3.org/2000/svg" xmlns:xlink="http://www.w3.org/1999/xlink" x="0px" y="0px"
	 viewBox="0 0 432 432" enable-background="new 0 0 432 432" xml:space="preserve">
<g>
	<g>
		<g>
			<g>
				<path fill="#4D575B" stroke="#4D575B" stroke-width="6" stroke-miterlimit="10" d="M216,21.6c106.9,0,194.4,87.5,194.4,194.4
					S322.9,410.4,216,410.4S21.6,322.9,21.6,216S109.1,21.6,216,21.6 M216,0C97.2,0,0,97.2,0,216s97.2,216,216,216s216-97.2,216-216
					S334.8,0,216,0L216,0z"/>
			</g>
		</g>
	</g>
	<path fill="#4D575B" stroke="#4D575B" stroke-width="6" stroke-miterlimit="10" d="M155.5,105.8c13-2.2,21.6,11.9,28.1,22.7
		c6.5,9.7,14,21.6,10.8,34.6c-2.2,7.6-8.6,10.8-13,15.1c-4.3,4.3-11.9,7.6-14,14c-3.2,10.8,3.2,21.6,7.6,28.1
		c8.6,14,19.4,27,33.5,37.8c6.5,5.4,16.2,13,25.9,10.8c14-3.2,17.3-20.5,32.4-22.7c14-2.2,23.8,8.6,32.4,15.1
		c7.6,6.5,20.5,15.1,19.4,27c0,6.5-5.4,10.8-10.8,15.1c-4.3,4.3-8.6,8.6-14,11.9c-11.9,7.6-24.8,10.8-41,10.8s-28.1-5.4-40-11.9
		c-22.7-11.9-40-28.1-56.2-46.4s-31.3-40-40-63.7c-10.8-30.2-5.4-60.5,11.9-79.9c3.2-3.2,7.6-6.5,11.9-9.7
		C145.8,111.2,149,106.9,155.5,105.8z"/>
</g>
</svg>
