<?xml version="1.0" encoding="utf-8"?>
<!-- Generator: Adobe Illustrator 18.1.1, SVG Export Plug-In . SVG Version: 6.00 Build 0)  -->
<svg version="1.1" id="Layer_1" xmlns="http://www.w3.org/2000/svg" xmlns:xlink="http://www.w3.org/1999/xlink" x="0px" y="0px"
	 viewBox="-195 197 40 40" enable-background="new -195 197 40 40" xml:space="preserve">
<g>
	<g>
		<g>
			<g>
				<path fill="#41545E" d="M-175,199c9.9,0,18,8.1,18,18s-8.1,18-18,18s-18-8.1-18-18S-184.9,199-175,199 M-175,197
					c-11,0-20,9-20,20c0,11,9,20,20,20c11,0,20-9,20-20C-155,206-164,197-175,197L-175,197z"/>
			</g>
		</g>
	</g>
	<path fill="#41545E" d="M-180.6,206.8c1.2-0.2,2,1.1,2.6,2.1c0.6,0.9,1.3,2,1,3.2c-0.2,0.7-0.8,1-1.2,1.4c-0.4,0.4-1.1,0.7-1.3,1.3
		c-0.3,1,0.3,2,0.7,2.6c0.8,1.3,1.8,2.5,3.1,3.5c0.6,0.5,1.5,1.2,2.4,1c1.3-0.3,1.6-1.9,3-2.1c1.3-0.2,2.2,0.8,3,1.4
		c0.7,0.6,1.9,1.4,1.8,2.5c0,0.6-0.5,1-1,1.4c-0.4,0.4-0.8,0.8-1.3,1.1c-1.1,0.7-2.3,1-3.8,1c-1.5,0-2.6-0.5-3.7-1.1
		c-2.1-1.1-3.7-2.6-5.2-4.3c-1.5-1.7-2.9-3.7-3.7-5.9c-1-2.8-0.5-5.6,1.1-7.4c0.3-0.3,0.7-0.6,1.1-0.9
		C-181.5,207.3-181.2,206.9-180.6,206.8z"/>
</g>
</svg>
