<?xml version="1.0" encoding="utf-8"?>
<!-- Generator: Adobe Illustrator 18.1.1, SVG Export Plug-In . SVG Version: 6.00 Build 0)  -->
<svg version="1.1" id="Layer_1" xmlns="http://www.w3.org/2000/svg" xmlns:xlink="http://www.w3.org/1999/xlink" x="0px" y="0px"
	 viewBox="71 22.7 432 409.3" enable-background="new 71 22.7 432 409.3" xml:space="preserve">
<path fill="#7E90A0" d="M71,397.3c0,20.3,16.5,36.7,36.7,36.7h119.5c20.3,0,36.7-16.5,36.7-36.7V250.2c0-20.3-16.5-36.7-36.7-36.7
	h-59c-10.2,0-18.4-8.3-18.4-18.4c0-3.3,0.8-5.6,0.8-5.6c13.5-44.5,47.3-80.1,90.9-96l0.2-0.2c13.2-5.6,22.4-18.6,22.4-33.8
	c0-20.3-16.5-36.7-36.7-36.7c-5,0-9.6,1-14,2.7l-1.6,0.6C129.4,58.1,71,138.1,71,231.7V397.3z M310,397.3
	c0,20.3,16.5,36.7,36.7,36.7h119.5c20.3,0,36.7-16.5,36.7-36.7V250.2c0-20.3-16.5-36.7-36.7-36.7h-59c-10.2,0-18.4-8.3-18.4-18.4
	c0-3.4,0.8-5.6,0.8-5.6c13.5-44.5,47.3-80.1,90.9-96l0.2-0.2c13.2-5.6,22.4-18.6,22.4-33.8c0-20.3-16.5-36.7-36.7-36.7
	c-5,0-9.6,1-14,2.7l-1.6,0.6c-82.3,32.1-140.6,112.1-140.6,205.7v165.5H310z"/>
</svg>
