<?xml version="1.0" encoding="utf-8"?>
<!-- Generator: Adobe Illustrator 18.1.1, SVG Export Plug-In . SVG Version: 6.00 Build 0)  -->
<svg version="1.1" id="Layer_1" xmlns="http://www.w3.org/2000/svg" xmlns:xlink="http://www.w3.org/1999/xlink" x="0px" y="0px"
	 viewBox="0 0 432 432" enable-background="new 0 0 432 432" xml:space="preserve">
<ellipse fill="#95AABD" stroke="#FFFFFF" stroke-width="7" stroke-miterlimit="10" cx="216.8" cy="216.4" rx="209.3" ry="208.5"/>
<rect x="76.2" y="69.1" fill="#95AABD" stroke="#FFFFFF" stroke-width="7" stroke-miterlimit="10" width="282.1" height="296.4"/>
<rect x="76.2" y="69.1" fill="#95AABD" stroke="#FFFFFF" stroke-width="7" stroke-miterlimit="10" width="282.1" height="296.4"/>
<rect x="76.1" y="69" transform="matrix(0.9848 -0.1736 0.1736 0.9848 -34.4077 40.9996)" fill="#95AABD" stroke="#FFFFFF" stroke-width="7" stroke-miterlimit="10" width="282.1" height="296.4"/>
<rect x="76.1" y="69" transform="matrix(0.9397 -0.342 0.342 0.9397 -61.1786 87.3466)" fill="#95AABD" stroke="#FFFFFF" stroke-width="7" stroke-miterlimit="10" width="282.1" height="296.4"/>
<rect x="76" y="69" transform="matrix(0.866 -0.5 0.5 0.866 -79.5003 137.6119)" fill="#95AABD" stroke="#FFFFFF" stroke-width="7" stroke-miterlimit="10" width="282.1" height="296.4"/>
<rect x="75.8" y="69" transform="matrix(0.766 -0.6428 0.6428 0.766 -88.8909 190.246)" fill="#95AABD" stroke="#FFFFFF" stroke-width="7" stroke-miterlimit="10" width="282.1" height="296.4"/>
<rect x="75.8" y="69.1" transform="matrix(0.6428 -0.766 0.766 0.6428 -89.0051 243.7527)" fill="#95AABD" stroke="#FFFFFF" stroke-width="7" stroke-miterlimit="10" width="282.1" height="296.4"/>
<rect x="75.7" y="69.1" transform="matrix(0.5 -0.866 0.866 0.5 -79.7966 296.3782)" fill="#95AABD" stroke="#FFFFFF" stroke-width="7" stroke-miterlimit="10" width="282.1" height="296.4"/>
<rect x="75.7" y="69.2" transform="matrix(0.342 -0.9397 0.9397 0.342 -61.6951 346.7242)" fill="#95AABD" stroke="#FFFFFF" stroke-width="7" stroke-miterlimit="10" width="282.1" height="296.4"/>
<rect x="75.6" y="69.2" transform="matrix(0.1736 -0.9848 0.9848 0.1736 -35.0811 393.0508)" fill="#95AABD" stroke="#FFFFFF" stroke-width="7" stroke-miterlimit="10" width="282.1" height="296.4"/>
<rect x="68.7" y="76.6" fill="#95AABD" stroke="#FFFFFF" stroke-width="7" stroke-miterlimit="10" width="296.4" height="282.1"/>
<ellipse fill="#95AABD" stroke="#FFFFFF" stroke-width="7" stroke-miterlimit="10" cx="216.8" cy="216.4" rx="143.2" ry="134.8"/>
</svg>
